<svg id="Layer_1" data-name="Layer 1" xmlns="http://www.w3.org/2000/svg" viewBox="0 0 374.85 377.93"><defs><style>.cls-1{fill:#eb3c80;}.cls-2,.cls-3,.cls-4,.cls-5{fill:#fff;}.cls-3{font-size:118.36px;}.cls-3,.cls-4{font-family:Avenir-Black, Avenir;}.cls-4{font-size:60.47px;}.cls-5{font-size:39.44px;font-family:SuisseIntlTrial-Bold, Suisse Int'l Trial;font-weight:700;}.cls-6{letter-spacing:-0.01em;}.cls-7{letter-spacing:0em;}.cls-8{fill:none;stroke:#fff;stroke-linecap:round;stroke-linejoin:round;stroke-width:5.35px;}</style></defs><title>47 years expertise</title><path class="cls-1" d="M356,65.33a160.56,160.56,0,0,0-66.26-40.08v1.44C354.7,47.07,402,107.83,402,179.42c0,88.24-71.79,160-160,160s-160-71.79-160-160c0-71.72,47.42-132.57,112.56-152.85V25.14a161.41,161.41,0,0,0-66.61,268.37A161.35,161.35,0,1,0,356,65.33Z" transform="translate(-63.47 -13.37)"/><path class="cls-1" d="M256.26,64.23l-9.23,0V54.07l-4.81-7.78h1.17L244.8,43l-1.41-3.29h-2.82L239.16,43l1.41,3.29h1.17l-5.23,7.78V64.2l-9,0L209.46,45.82l13.33,33.34h38.43l13.22-33.34ZM241.92,49.5l1.94,3.37H240Zm16.93,27H223.36V75.22h35.49Zm0-3.94H223.36V68.64h35.49Z" transform="translate(-63.47 -13.37)"/><ellipse class="cls-1" cx="214.34" cy="345.13" rx="20.81" ry="6.97" transform="translate(-161.06 71.46) rotate(-18.31)"/><ellipse class="cls-1" cx="216.52" cy="328.52" rx="6.97" ry="20.81" transform="translate(-240.4 315.99) rotate(-56.74)"/><ellipse class="cls-1" cx="177.77" cy="334.68" rx="20.81" ry="6.97" transform="translate(-93.7 4.53) rotate(-5.31)"/><ellipse class="cls-1" cx="183.63" cy="318.98" rx="6.97" ry="20.81" transform="translate(-233.04 202.09) rotate(-43.74)"/><ellipse class="cls-1" cx="144.49" cy="316.27" rx="6.97" ry="20.81" transform="translate(-251.73 403.78) rotate(-82.31)"/><ellipse class="cls-1" cx="153.73" cy="302.3" rx="6.97" ry="20.81" transform="matrix(0.86, -0.51, 0.51, 0.86, -196.38, 107.67)"/><ellipse class="cls-1" cx="116.2" cy="290.84" rx="6.97" ry="20.81" transform="translate(-260.41 283.44) rotate(-69.31)"/><ellipse class="cls-1" cx="128.35" cy="279.31" rx="6.97" ry="20.81" transform="translate(-142.47 39.01) rotate(-17.74)"/><ellipse class="cls-1" cx="94.36" cy="259.71" rx="6.97" ry="20.81" transform="translate(-237.54 180.8) rotate(-56.31)"/><ellipse class="cls-1" cx="108.79" cy="251.2" rx="6.97" ry="20.81" transform="matrix(1, -0.08, 0.08, 1, -83.85, -3.53)"/><ellipse class="cls-1" cx="80.08" cy="224.46" rx="6.97" ry="20.81" transform="translate(-195.63 102.7) rotate(-43.31)"/><ellipse class="cls-1" cx="96.06" cy="219.41" rx="20.81" ry="6.97" transform="translate(-198.35 269.57) rotate(-81.74)"/><ellipse class="cls-1" cx="74.1" cy="186.9" rx="6.97" ry="20.81" transform="translate(-147.67 49.58) rotate(-30.31)"/><ellipse class="cls-1" cx="90.8" cy="185.58" rx="20.81" ry="6.97" transform="translate(-178.54 189.52) rotate(-68.74)"/><ellipse class="cls-1" cx="76.72" cy="148.95" rx="6.97" ry="20.81" transform="translate(-104.32 16.21) rotate(-17.31)"/><ellipse class="cls-1" cx="93.29" cy="151.42" rx="20.81" ry="6.97" transform="translate(-147.85 129.9) rotate(-55.74)"/><ellipse class="cls-1" cx="87.81" cy="112.57" rx="6.97" ry="20.81" transform="translate(-71.69 -6.45) rotate(-4.31)"/><ellipse class="cls-1" cx="103.39" cy="118.71" rx="20.81" ry="6.97" transform="translate(-116.57 88.31) rotate(-42.74)"/><ellipse class="cls-1" cx="106.79" cy="79.62" rx="20.81" ry="6.97" transform="matrix(0.15, -0.99, 0.99, 0.15, -51.51, 159.79)"/><ellipse class="cls-1" cx="120.6" cy="89.1" rx="20.81" ry="6.97" transform="translate(-91.78 58.18) rotate(-29.74)"/><ellipse class="cls-1" cx="132.71" cy="51.78" rx="20.81" ry="6.97" transform="translate(-27.91 142.59) rotate(-68.31)"/><ellipse class="cls-1" cx="144.03" cy="64.13" rx="20.81" ry="6.97" transform="translate(-75.83 30.82) rotate(-16.74)"/><ellipse class="cls-1" cx="164.22" cy="30.48" rx="20.81" ry="6.97" transform="translate(-17.77 134.8) rotate(-55.31)"/><ellipse class="cls-1" cx="172.47" cy="45.06" rx="20.81" ry="6.97" transform="translate(-66.04 -2.03) rotate(-3.74)"/><ellipse class="cls-1" cx="270.79" cy="345.13" rx="6.97" ry="20.81" transform="translate(-205.42 480.38) rotate(-71.69)"/><ellipse class="cls-1" cx="268.61" cy="328.52" rx="20.81" ry="6.97" transform="translate(-199.65 187.79) rotate(-33.26)"/><ellipse class="cls-1" cx="307.36" cy="334.68" rx="6.97" ry="20.81" transform="translate(-117.82 596.35) rotate(-84.69)"/><ellipse class="cls-1" cx="301.5" cy="318.98" rx="20.81" ry="6.97" transform="translate(-200.89 302.92) rotate(-46.26)"/><ellipse class="cls-1" cx="340.64" cy="316.27" rx="20.81" ry="6.97" transform="translate(-102.71 35.03) rotate(-7.69)"/><ellipse class="cls-1" cx="331.4" cy="302.3" rx="20.81" ry="6.97" transform="translate(-161.28 419.26) rotate(-59.26)"/><ellipse class="cls-1" cx="368.92" cy="290.84" rx="20.81" ry="6.97" transform="translate(-142.42 135.7) rotate(-20.69)"/><ellipse class="cls-1" cx="356.78" cy="279.31" rx="20.81" ry="6.97" transform="translate(-81.42 520.65) rotate(-72.26)"/><ellipse class="cls-1" cx="390.77" cy="259.71" rx="20.81" ry="6.97" transform="translate(-141.9 246.98) rotate(-33.69)"/><ellipse class="cls-1" cx="376.34" cy="251.2" rx="20.81" ry="6.97" transform="translate(31.44 592.13) rotate(-85.26)"/><ellipse class="cls-1" cx="405.05" cy="224.46" rx="20.81" ry="6.97" transform="translate(-99.6 351.82) rotate(-46.69)"/><ellipse class="cls-1" cx="389.07" cy="219.41" rx="6.97" ry="20.81" transform="matrix(0.99, -0.14, 0.14, 0.99, -90.96, 44.81)"/><ellipse class="cls-1" cx="411.03" cy="186.9" rx="20.81" ry="6.97" transform="translate(-21.24 434.02) rotate(-59.69)"/><ellipse class="cls-1" cx="394.33" cy="185.58" rx="6.97" ry="20.81" transform="translate(-103.92 142.25) rotate(-21.26)"/><ellipse class="cls-1" cx="408.41" cy="148.95" rx="20.81" ry="6.97" transform="translate(81.19 481.15) rotate(-72.69)"/><ellipse class="cls-1" cx="391.84" cy="151.42" rx="6.97" ry="20.81" transform="translate(-80.72 233.5) rotate(-34.26)"/><ellipse class="cls-1" cx="397.32" cy="112.57" rx="20.81" ry="6.97" transform="translate(191.71 486.93) rotate(-85.69)"/><ellipse class="cls-1" cx="381.73" cy="118.71" rx="6.97" ry="20.81" transform="translate(-27.98 305.14) rotate(-47.26)"/><ellipse class="cls-1" cx="378.34" cy="79.62" rx="6.97" ry="20.81" transform="translate(-71.15 44.67) rotate(-8.69)"/><ellipse class="cls-1" cx="364.53" cy="89.1" rx="6.97" ry="20.81" transform="translate(42.88 348.05) rotate(-60.26)"/><ellipse class="cls-1" cx="352.42" cy="51.78" rx="6.97" ry="20.81" transform="translate(-57.66 120.52) rotate(-21.69)"/><ellipse class="cls-1" cx="341.1" cy="64.13" rx="6.97" ry="20.81" transform="matrix(0.29, -0.96, 0.96, 0.29, 117.99, 358.93)"/><ellipse class="cls-1" cx="320.91" cy="30.48" rx="6.97" ry="20.81" transform="translate(-23.78 174.67) rotate(-34.69)"/><ellipse class="cls-1" cx="312.65" cy="45.06" rx="6.97" ry="20.81" transform="translate(183.84 340.74) rotate(-86.26)"/><ellipse class="cls-1" cx="198.4" cy="23.25" rx="20.81" ry="6.97" transform="translate(-56.84 65.81) rotate(-22.94)"/><ellipse class="cls-1" cx="286.28" cy="23.25" rx="6.97" ry="20.81" transform="translate(89.79 264.44) rotate(-67.06)"/><polygon class="cls-2" points="118.47 245.4 120.82 252.65 128.44 252.65 122.28 257.19 124.63 264.47 118.47 260.01 112.31 264.5 114.66 257.19 108.5 252.65 116.12 252.65 118.47 245.4"/><polygon class="cls-2" points="149.36 245.4 151.72 252.65 159.33 252.65 153.17 257.19 155.52 264.47 149.36 260.01 143.2 264.5 145.55 257.19 139.39 252.65 147.01 252.65 149.36 245.4"/><polygon class="cls-2" points="180.25 245.4 182.61 252.65 190.22 252.65 184.06 257.19 186.42 264.47 180.25 260.01 174.09 264.5 176.44 257.19 170.28 252.65 177.9 252.65 180.25 245.4"/><polygon class="cls-2" points="211.15 245.4 213.5 252.65 221.12 252.65 214.95 257.19 217.31 264.47 211.15 260.01 204.98 264.5 207.34 257.19 201.18 252.65 208.79 252.65 211.15 245.4"/><polygon class="cls-2" points="242.04 245.4 244.39 252.65 252.01 252.65 245.85 257.19 248.2 264.47 242.04 260.01 235.88 264.5 238.23 257.19 232.07 252.65 239.68 252.65 242.04 245.4"/><rect class="cls-2" x="72.39" y="235.22" width="217.31" height="4.61"/><rect class="cls-1" x="72.39" y="227.17" width="217.31" height="4.61"/><text class="cls-3" transform="translate(65.74 177.11)">47</text><text class="cls-4" transform="translate(204.98 151.44)">yrs</text><text class="cls-5" transform="translate(65.71 217.52)">EXPE<tspan class="cls-6" x="107.46" y="0">R</tspan><tspan class="cls-7" x="135.42" y="0">TISE</tspan></text><line class="cls-8" x1="336.66" y1="66.04" x2="372.17" y2="30.15"/><line class="cls-8" x1="30.64" y1="375.25" x2="76.81" y2="328.6"/></svg>