<?xml version="1.0" encoding="utf-8"?>
<!-- Generator: Adobe Illustrator 22.0.1, SVG Export Plug-In . SVG Version: 6.00 Build 0)  -->
<svg version="1.1" id="Layer_1" xmlns="http://www.w3.org/2000/svg" xmlns:xlink="http://www.w3.org/1999/xlink" x="0px" y="0px"
	 viewBox="0 0 1366 768" style="enable-background:new 0 0 1366 768;" xml:space="preserve">
<style type="text/css">
	.st0{fill:url(#SVGID_1_);}
	.st1{fill:#0078FF;}
	.st2{fill:url(#SVGID_2_);}
	.st3{fill:url(#SVGID_3_);}
</style>
<g>
	<linearGradient id="SVGID_1_" gradientUnits="userSpaceOnUse" x1="366.9814" y1="386.3765" x2="1018.183" y2="383.7302">
		<stop  offset="0" style="stop-color:#290C66"/>
		<stop  offset="8.579778e-02" style="stop-color:#421269"/>
		<stop  offset="0.2686" style="stop-color:#832171"/>
		<stop  offset="0.5319" style="stop-color:#E9397E"/>
		<stop  offset="0.5661" style="stop-color:#F73C80"/>
		<stop  offset="0.6236" style="stop-color:#F33E82"/>
		<stop  offset="0.6792" style="stop-color:#E74288"/>
		<stop  offset="0.7341" style="stop-color:#D44A92"/>
		<stop  offset="0.7885" style="stop-color:#B955A0"/>
		<stop  offset="0.8426" style="stop-color:#9564B2"/>
		<stop  offset="0.8964" style="stop-color:#6A75C8"/>
		<stop  offset="0.9491" style="stop-color:#3889E2"/>
		<stop  offset="1" style="stop-color:#00A0FF"/>
	</linearGradient>
	<path class="st0" d="M420.6,483.6c-54.3,0-98.5-44.2-98.5-98.5s44.2-98.5,98.5-98.5h521.2c54.3,0,98.5,44.2,98.5,98.5
		s-44.2,98.5-98.5,98.5H420.6z"/>
	<path class="st1" d="M941.8,473.6H420.6c-48.9,0-88.5-39.6-88.5-88.5v0c0-48.9,39.6-88.5,88.5-88.5h521.2
		c48.9,0,88.5,39.6,88.5,88.5v0C1030.3,434,990.7,473.6,941.8,473.6z"/>
</g>
<linearGradient id="SVGID_2_" gradientUnits="userSpaceOnUse" x1="976.8578" y1="432.2773" x2="351.6983" y2="332.518">
	<stop  offset="0" style="stop-color:#2E0C72"/>
	<stop  offset="0.779" style="stop-color:#2E0C72;stop-opacity:0"/>
	<stop  offset="0.8048" style="stop-color:#2D1175;stop-opacity:0"/>
	<stop  offset="0.8339" style="stop-color:#2A1E7D;stop-opacity:0"/>
	<stop  offset="0.8646" style="stop-color:#26358B;stop-opacity:0"/>
	<stop  offset="0.8965" style="stop-color:#1F559F;stop-opacity:0"/>
	<stop  offset="0.9293" style="stop-color:#177EB8;stop-opacity:0"/>
	<stop  offset="0.9629" style="stop-color:#0DAFD7;stop-opacity:0"/>
	<stop  offset="0.9964" style="stop-color:#01E9FB;stop-opacity:0"/>
	<stop  offset="1" style="stop-color:#00F0FF;stop-opacity:0"/>
</linearGradient>
<path class="st2" d="M941.8,473.6H420.6c-48.9,0-88.5-39.6-88.5-88.5v0c0-48.9,39.6-88.5,88.5-88.5h521.2
	c48.9,0,88.5,39.6,88.5,88.5v0C1030.3,434,990.7,473.6,941.8,473.6z"/>
<linearGradient id="SVGID_3_" gradientUnits="userSpaceOnUse" x1="332.1226" y1="385.0997" x2="1030.2986" y2="385.0997">
	<stop  offset="0" style="stop-color:#F73C80"/>
	<stop  offset="0.779" style="stop-color:#F73C80;stop-opacity:0"/>
	<stop  offset="0.8036" style="stop-color:#F23F82;stop-opacity:0"/>
	<stop  offset="0.8315" style="stop-color:#E54989;stop-opacity:0"/>
	<stop  offset="0.8609" style="stop-color:#CE5A95;stop-opacity:0"/>
	<stop  offset="0.8915" style="stop-color:#AE71A5;stop-opacity:0"/>
	<stop  offset="0.9229" style="stop-color:#858FBA;stop-opacity:0"/>
	<stop  offset="0.955" style="stop-color:#53B3D4;stop-opacity:0"/>
	<stop  offset="0.987" style="stop-color:#1ADDF2;stop-opacity:0"/>
	<stop  offset="1" style="stop-color:#00F0FF;stop-opacity:0"/>
</linearGradient>
<path class="st3" d="M941.8,473.6H420.6c-48.9,0-88.5-39.6-88.5-88.5v0c0-48.9,39.6-88.5,88.5-88.5h521.2
	c48.9,0,88.5,39.6,88.5,88.5v0C1030.3,434,990.7,473.6,941.8,473.6z"/>
</svg>
