<?xml version="1.0" encoding="utf-8"?>
<!-- Generator: Adobe Illustrator 21.1.0, SVG Export Plug-In . SVG Version: 6.00 Build 0)  -->
<svg version="1.1" id="Layer_2" xmlns="http://www.w3.org/2000/svg" xmlns:xlink="http://www.w3.org/1999/xlink" x="0px" y="0px"
	 viewBox="0 0 321.4 163.8" style="enable-background:new 0 0 321.4 163.8;" xml:space="preserve">
<style type="text/css">
	.st0{fill:#EB3C80;}
</style>
<title>cataract</title>
<path class="st0" d="M318.8,76.9c-47.5-51.5-107-78.7-167.5-76.8c-28.1,0.9-55.7,8.1-80.7,21C45,34.2,22.3,52.8,3.3,76.3L0,80.4
	l3.6,3.8C36.2,118.4,71,141.8,106.9,154c29.9,10.3,62,12.5,93,6.6c63.9-12.2,111.4-56.2,120-77.4l1.4-3.5L318.8,76.9z M161.1,151.4
	c-24.3,0-46.8-12.7-59.4-33.5H163v-0.1c21.5-1.5,37.7-20.1,36.2-41.6c-0.6-9.2-4.5-17.8-10.9-24.4h35.4c16.6,34.6,2,76.1-32.6,92.7
	C181.8,149.1,171.5,151.4,161.1,151.4z M133.2,78.9c0-14.9,12.1-27.1,27.1-27s27.1,12.1,27,27.1c0,14.9-12.1,27-27,27
	C145.3,106,133.2,93.8,133.2,78.9L133.2,78.9z M160.2,39.8c-21.5-0.1-39,17.4-39.1,38.9c0,10.2,3.9,19.9,11,27.2H95.9
	C82.6,70,101,30,137,16.7c28.7-10.6,60.9-1.2,79.4,23.1L160.2,39.8L160.2,39.8z M16,79.8c28.5-33.5,64.8-55.5,104.6-64
	c-36.5,22.3-48,70-25.7,106.5c5.1,8.3,11.7,15.6,19.5,21.5c-1.2-0.4-2.5-0.8-3.7-1.2C78,131.5,46.2,110.4,16,79.8L16,79.8z
	 M201.6,148c36.5-22.3,47.9-70,25.6-106.4c-5.5-9-12.8-16.7-21.4-22.8c36.5,10.2,71.3,31.7,101.3,63.3
	C297.3,98.9,258.3,135.8,201.6,148z"/>
</svg>
