<?xml version="1.0" encoding="UTF-8" standalone="no"?>
<svg
   xmlns:dc="http://purl.org/dc/elements/1.1/"
   xmlns:cc="http://creativecommons.org/ns#"
   xmlns:rdf="http://www.w3.org/1999/02/22-rdf-syntax-ns#"
   xmlns:svg="http://www.w3.org/2000/svg"
   xmlns="http://www.w3.org/2000/svg"
   xmlns:xlink="http://www.w3.org/1999/xlink"
   xml:space="preserve"
   style="enable-background:new 0 0 298 74;"
   viewBox="0 0 298 74"
   y="0px"
   x="0px"
   id="Layer_1"
   version="1.1"><metadata
     id="metadata27"><rdf:RDF><cc:Work
         rdf:about=""><dc:format>image/svg+xml</dc:format><dc:type
           rdf:resource="http://purl.org/dc/dcmitype/StillImage" /></cc:Work></rdf:RDF></metadata><defs
     id="defs25" /><style
     id="style2"
     type="text/css">
	.st0{fill:#2E0D72;}
	.st1{clip-path:url(#SVGID_2_);}
	.st2{fill:#EB3C80;}
</style><g
     id="g20"><g
       id="g6"><path
         id="path4"
         d="M261.3,74.2H36.7C16.2,74.2-0.5,57.5-0.5,37v0c0-20.5,16.6-37.2,37.2-37.2l224.6,0    c20.5,0,37.2,16.6,37.2,37.2v0C298.5,57.5,281.8,74.2,261.3,74.2z"
         class="st0" /></g><g
       id="g18"><defs
         id="defs9"><path
           d="M261.3,74.2H36.7C16.2,74.2-0.5,57.5-0.5,37v0c0-20.5,16.6-37.2,37.2-37.2l224.6,0     c20.5,0,37.2,16.6,37.2,37.2v0C298.5,57.5,281.8,74.2,261.3,74.2z"
           id="SVGID_1_" /></defs><clipPath
         id="SVGID_2_"><use
           id="use11"
           style="overflow:visible;"
           xlink:href="#SVGID_1_" /></clipPath><g
         id="g16"
         clip-path="url(#SVGID_2_)"
         class="st1"><path
           id="path14"
           d="M218.5-90.5l-67.7-77.9c-0.9-1-2.5-1-3.4,0L76.7-87.5C61.4-70.4,52.2-47.8,52.2-23.1     c0,53.5,43.3,96.8,96.8,96.8s96.8-43.3,96.8-96.8C245.8-49.3,235.4-73.1,218.5-90.5z"
           class="st2" /></g></g></g></svg>