<?xml version="1.0" encoding="utf-8"?>
<!-- Generator: Adobe Illustrator 21.1.0, SVG Export Plug-In . SVG Version: 6.00 Build 0)  -->
<svg version="1.1" id="Layer_1" xmlns="http://www.w3.org/2000/svg" xmlns:xlink="http://www.w3.org/1999/xlink" x="0px" y="0px"
	 viewBox="0 0 180 181" style="enable-background:new 0 0 180 181;" xml:space="preserve">
<style type="text/css">
	.st0{fill:#2E0D72;}
	.st1{fill:#1A0948;}
	.st2{fill:#FFFFFF;}
</style>
<g>
	<g>
		<circle class="st0" cx="90" cy="90.5" r="90"/>
		<path class="st1" d="M101.4,179.8c43.6-5.5,77.5-42.3,78.5-87.2l-37.8-37.8c0,0-90.8-1.2-96.7-0.8c-5.9,0.4-8.1,4.3-8.1,4.3
			l0.4,19.4l40.8,40.8L61,139.3L101.4,179.8z"/>
		<g>
			<path class="st2" d="M114,123c-1.4-1.3-5.1-3.8-16.1-9.4l-0.8,1.2c-1,1.6-2.8,2.5-4.7,2.5h-4.9c-1.9,0-3.6-0.9-4.7-2.5l-0.8-1.3
				c-10.8,5.6-14.6,8.1-16,9.4c-2.3,2.1-3.7,8.8-5,16.4h58C117.8,132.9,116.3,125,114,123z M77.7,101.2c0.3,1.3,1.1,2.2,1.9,2.2
				c0.1,0,0.1,0,0.2,0c0.9,2.8,1.9,4.9,2.2,5.4c1.2,1.7,5.3,4.3,7.9,4.3c2.6,0,6.9-2.6,8.1-4.3c0.3-0.5,1.4-2.6,2.3-5.4
				c0.1,0,0.1,0,0.2,0c0.8,0,1.6-0.9,1.9-2.2c0.3-1.3-0.1-2.6-0.9-2.9c0.1-0.6,0.1-1.2,0.2-1.7c0.4-3.2-0.1-6.7-1.7-9
				c-2.4-3.4-6.9-4.1-9.5-4.1c-0.3,0-0.5,0-0.7,0c0.4-0.2,1.2-0.4,2.2-0.4c0.1,0,0.2,0,0.2,0c-0.8-0.1-1.6-0.2-2.3-0.2
				c-2.9,0-4.4,1.2-6.1,2.4c-0.1,0-0.2,0-0.2,0c-1.5,0-3.4,1.2-3.9,2.2c0.5-0.4,1.1-0.8,1.6-1c-2.5,1.5-3.1,4-3.1,4.3
				c-0.3,2.2-0.1,4.9,0.5,7.6C77.8,98.6,77.4,99.9,77.7,101.2z M79.2,99.7c0.1-0.1,0.2-0.2,0.3-0.3l1.2,0.7c0,0-0.2-1-0.4-2.4
				c-0.4-6.6,3-5.1,8.3-5.4c8-0.4,11.7-0.9,10.9,6.1c-0.1,1-0.3,1.7-0.3,1.7l1.2-0.7c0.1,0.1,0.2,0.2,0.3,0.3c0.1,0.2,0.1,0.6,0,1.1
				c-0.1,0.5-0.4,0.9-0.5,1c0,0,0,0-0.1,0c-0.7,0-1.3,0.4-1.5,1.1c-0.9,2.7-1.9,4.7-2.1,5c-0.9,1.3-4.7,3.6-6.8,3.6
				c-2,0-5.7-2.3-6.6-3.6c-0.2-0.3-1.2-2.3-2-4.9c-0.2-0.7-0.7-1.1-1.4-1.1c-0.1,0-0.1,0-0.2,0c-0.1-0.1-0.4-0.4-0.5-1
				C79.1,100.3,79.2,99.9,79.2,99.7z"/>
			<path class="st2" d="M135.5,52h-91c-5.2,0-9.4,4.2-9.4,9.4V71c0,5.2,4.2,9.4,9.4,9.4h63.7v12.4c0,0.6,0.4,1.2,0.9,1.5
				c0.2,0.1,0.5,0.2,0.7,0.2c0.4,0,0.7-0.1,1-0.4l17-13.7h7.5c5.2,0,9.4-4.2,9.4-9.4v-9.6C144.9,56.2,140.7,52,135.5,52z M141.6,71
				c0,3.4-2.7,6.1-6.1,6.1h-8.1c-0.4,0-0.7,0.1-1,0.4l-14.8,11.9V78.8c0-0.9-0.7-1.7-1.7-1.7H44.5c-3.4,0-6.1-2.7-6.1-6.1v-9.6
				c0-3.4,2.7-6.1,6.1-6.1h91c3.4,0,6.1,2.7,6.1,6.1V71z M73.2,64l-2.2-4.4L68.9,64l-4.8,0.7l3.5,3.4l-0.8,4.8l4.3-2.3l4.3,2.3
				l-0.8-4.8l3.5-3.4L73.2,64z M92.2,64L90,59.6L87.8,64L83,64.7l3.5,3.4l-0.8,4.8l4.3-2.3l4.3,2.3l-0.8-4.8l3.5-3.4L92.2,64z
				 M54.3,64l-2.2-4.4L50,64l-4.8,0.7l3.5,3.4l-0.8,4.8l4.3-2.3l4.3,2.3l-0.8-4.8l3.5-3.4L54.3,64z M111.1,64l-2.2-4.4l-2.2,4.4
				l-4.8,0.7l3.5,3.4l-0.8,4.8l4.3-2.3l4.3,2.3l-0.8-4.8l3.5-3.4L111.1,64z M130,64l-2.2-4.4l-2.2,4.4l-4.8,0.7l3.5,3.4l-0.8,4.8
				l4.3-2.3l4.3,2.3l-0.8-4.8l3.5-3.4L130,64z"/>
		</g>
	</g>
</g>
</svg>
