<?xml version="1.0" encoding="utf-8"?>
<!-- Generator: Adobe Illustrator 21.1.0, SVG Export Plug-In . SVG Version: 6.00 Build 0)  -->
<svg version="1.1" id="Layer_1" xmlns="http://www.w3.org/2000/svg" xmlns:xlink="http://www.w3.org/1999/xlink" x="0px" y="0px"
	 viewBox="0 0 180 180" style="enable-background:new 0 0 180 180;" xml:space="preserve">
<style type="text/css">
	.st0{fill:#2E0D72;}
	.st1{clip-path:url(#SVGID_2_);fill:#1A0948;}
	.st2{fill:#FFFFFF;}
</style>
<g>
	<g>
		<circle class="st0" cx="90" cy="90" r="90"/>
	</g>
</g>
<g>
	<g>
		<defs>
			<circle id="SVGID_1_" cx="90" cy="90" r="90"/>
		</defs>
		<clipPath id="SVGID_2_">
			<use xlink:href="#SVGID_1_"  style="overflow:visible;"/>
		</clipPath>
		<path class="st1" d="M119.2,43.4l65.7,65.6l-1.8,1.3c-8.5,36.1-38.7,63.8-76.1,68.6l-40.4-40.4l0.6-5.1l-3.4-3.9
			c0,0-1-81.2,1.1-81.5C68.8,47.5,119.2,43.4,119.2,43.4z"/>
	</g>
</g>
<path class="st2" d="M113.6,41.2H101c-2.1,0-3.9,1.4-4.5,3.3c-0.6-0.1-1.2-0.2-1.8-0.2h-9.5c-0.6,0-1.2,0.1-1.8,0.2
	c-0.6-1.9-2.4-3.3-4.5-3.3H66.3c-4.3,0-7.9,3.5-7.9,7.9v37.8c0,2.1,1.3,3.8,3.2,4.4v36.6c0,2.2,1.5,4,3.5,4.5l1.6,6.5h8.8l1.6-6.3
	H103l1.6,6.3h8.8l1.6-6.5c2-0.6,3.5-2.4,3.5-4.5V91.2c1.8-0.7,3.2-2.4,3.2-4.4V49C121.5,44.7,118,41.2,113.6,41.2z M112.1,85.3h-11
	V79h3.2c2.6,0,4.7-2.1,4.7-4.7V61.7c0-2.1-1.3-3.8-3.2-4.4v-1.9c0-1.7-0.4-3.3-1.1-4.7h5.8c0.9,0,1.6,0.7,1.6,1.6V85.3z M104.2,60.1
	c0.9,0,1.6,0.7,1.6,1.6v7.9H74.3v-7.9c0-0.9,0.7-1.6,1.6-1.6H104.2z M74.2,55.4v1.9c-1.8,0.7-3.2,2.4-3.2,4.4v12.6
	c0,2.6,2.1,4.7,4.7,4.7h3.2v6.3h-11V52.2c0-0.9,0.7-1.6,1.6-1.6h5.8C74.6,52.1,74.2,53.7,74.2,55.4z M82.1,78.9h15.8v6.3H82.1V78.9z
	 M113.6,129.4H66.3c-0.9,0-1.6-0.7-1.6-1.6v-4.7h44.1v-3.2H91.5v-6.3H112v-22H67.9v22h14.2v6.3H64.8v-30c0-0.9,0.7-1.6,1.6-1.6h47.3
	c0.9,0,1.6,0.7,1.6,1.6v30h-3.2v3.2h3.2v4.7C115.2,128.8,114.5,129.4,113.6,129.4z M91.6,107.4h14.2v-9.5H74.3v9.5h7.9v3.2h-11V94.8
	H109v15.8H91.7v-3.2H91.6z"/>
</svg>
