<?xml version="1.0" encoding="utf-8"?>
<!-- Generator: Adobe Illustrator 21.1.0, SVG Export Plug-In . SVG Version: 6.00 Build 0)  -->
<svg version="1.1" id="Layer_1" xmlns="http://www.w3.org/2000/svg" xmlns:xlink="http://www.w3.org/1999/xlink" x="0px" y="0px"
	 viewBox="0 0 188 180" style="enable-background:new 0 0 188 180;" xml:space="preserve">
<style type="text/css">
	.st0{fill:#2E0D72;}
	.st1{clip-path:url(#SVGID_2_);fill:#1A0948;}
	.st2{fill:#FFFFFF;}
</style>
<g>
	<circle class="st0" cx="94" cy="90" r="90"/>
	<g>
		<g>
			<defs>
				<circle id="SVGID_1_" cx="94" cy="90" r="90"/>
			</defs>
			<clipPath id="SVGID_2_">
				<use xlink:href="#SVGID_1_"  style="overflow:visible;"/>
			</clipPath>
			<path class="st1" d="M109.7,51.6l69.9,70.2c0,0-3.4,30.6-19.6,46c-14.5,13.8-42.9,14.2-60.9,12.2l-40.4-40.4l2.8-24.8
				c0,0,13.1-7.8,21.4-13.7c2.6-1.9-7.7-13.4-7.5-19.6C75.9,64.2,79.1,52,80,51.9C83.9,51.3,109.7,51.6,109.7,51.6z"/>
		</g>
	</g>
	<g>
		<g>
			<path class="st2" d="M94.1,105.3h-0.5c-2.8,0-5.5-0.8-8-2.3c-1-0.6-1.9-1.3-2.8-2.1c-3.7-3.3-6.3-8.1-7.5-13.7
				c-0.1-0.4,0.2-0.8,0.6-0.9c0.4-0.1,0.8,0.2,0.9,0.6c1.1,5.2,3.6,9.8,7,12.9c0.8,0.7,1.7,1.4,2.6,1.9c2.3,1.4,4.7,2.1,7.3,2.1h0.5
				c2.5,0,5-0.7,7.3-2.1c0.9-0.5,1.8-1.2,2.6-1.9c3.4-3.1,5.9-7.6,7-12.9c0.1-0.4,0.5-0.7,0.9-0.6s0.7,0.5,0.6,0.9
				c-1.1,5.5-3.8,10.4-7.5,13.7c-0.9,0.8-1.8,1.5-2.8,2.1C99.6,104.6,96.9,105.3,94.1,105.3z"/>
		</g>
		<g>
			<g>
				<path class="st2" d="M111.7,87.9c-0.4,0-0.7-0.3-0.7-0.7c0-0.4,0.3-0.7,0.7-0.8c1.8-0.1,3.1-1.5,3.1-3.3c0-1.6-1.1-2.9-2.7-3.2
					c-0.4-0.1-0.7-0.5-0.6-0.9c0.1-0.4,0.5-0.7,0.9-0.6c2.2,0.4,3.9,2.4,3.9,4.7C116.3,85.7,114.3,87.8,111.7,87.9
					C111.8,87.9,111.8,87.9,111.7,87.9z"/>
			</g>
			<g>
				<path class="st2" d="M76.2,87.9C76.1,87.9,76.1,87.9,76.2,87.9c-2.6-0.1-4.6-2.2-4.6-4.7c0-2.3,1.6-4.3,3.9-4.7
					c0.4-0.1,0.8,0.2,0.9,0.6c0.1,0.4-0.2,0.8-0.6,0.9c-1.5,0.3-2.7,1.6-2.7,3.2c0,1.8,1.4,3.2,3.1,3.3c0.4,0,0.7,0.4,0.7,0.8
					C76.9,87.6,76.5,87.9,76.2,87.9z"/>
			</g>
		</g>
		<g>
			<path class="st2" d="M96.1,82.1h-4.8c-0.4,0-0.7-0.3-0.7-0.7c0-0.4,0.3-0.7,0.7-0.7h4.8c0.4,0,0.7,0.3,0.7,0.7
				S96.5,82.1,96.1,82.1z"/>
		</g>
		<g>
			<g>
				<path class="st2" d="M94.1,77.5L94.1,77.5c-0.1,0-0.2,0-0.2,0l0,0h-0.1l0,0c-5.2,0-9.5-4.3-9.5-9.5s4.3-9.5,9.5-9.5h0.4
					c5.2,0,9.5,4.3,9.5,9.5C103.6,73.2,99.4,77.5,94.1,77.5z M94.1,75.9L94.1,75.9L94.1,75.9c4.4,0,8-3.6,8-7.9
					c0-4.4-3.6-7.9-7.9-7.9h-0.4c-4.4,0-7.9,3.6-7.9,7.9c0,4.4,3.6,7.9,7.9,7.9h0.1H94C94,75.9,94,75.9,94.1,75.9L94.1,75.9z"/>
			</g>
			<g>
				<path class="st2" d="M94.1,72L94.1,72L94.1,72h-0.2l0,0h-0.1l0,0h-0.1l0,0c-2.2,0-4-1.8-4-4s1.8-4,4-4h0.4c2.2,0,4,1.8,4,4
					C98.1,70.2,96.3,72,94.1,72z M94.1,70.4L94.1,70.4c1.4,0,2.5-1.1,2.5-2.4s-1.1-2.4-2.4-2.4h-0.4c-1.3,0-2.4,1.1-2.4,2.4
					s1.1,2.4,2.4,2.4l0,0h0.1l0,0H94H94.1L94.1,70.4L94.1,70.4z"/>
			</g>
			<g>
				<path class="st2" d="M102.2,72.1c-0.4,0-0.8-0.3-0.8-0.8c0-0.4,0.3-0.8,0.8-0.8l9.2-0.1c0-4.7-0.4-15.3-2.8-17.7
					c-0.3-0.3-0.5-0.4-0.8-0.4H80.2c-0.3,0-0.5,0.1-0.8,0.4c-2.4,2.4-2.9,13-2.8,17.7l9.2,0.1c0.4,0,0.8,0.4,0.8,0.8
					s-0.4,0.8-0.8,0.8l0,0l-10-0.1c-0.4,0-0.8-0.3-0.8-0.8c0-1.6-0.2-16.1,3.3-19.6c0.6-0.6,1.2-0.9,1.9-0.9h27.6
					c0.7,0,1.4,0.3,1.9,0.9c3.5,3.5,3.3,18,3.3,19.6c0,0.4-0.3,0.8-0.8,0.8L102.2,72.1L102.2,72.1z"/>
			</g>
			<g>
				<path class="st2" d="M112.1,67.6h-9.4c-0.4,0-0.8-0.3-0.8-0.8c0-0.4,0.3-0.8,0.8-0.8h9.4c0.4,0,0.8,0.3,0.8,0.8
					C112.9,67.2,112.5,67.6,112.1,67.6z"/>
			</g>
			<g>
				<path class="st2" d="M85.1,67.6h-9.4c-0.4,0-0.8-0.3-0.8-0.8c0-0.4,0.3-0.8,0.8-0.8h9.4c0.4,0,0.8,0.3,0.8,0.8
					C85.9,67.2,85.6,67.6,85.1,67.6z"/>
			</g>
		</g>
		<g>
			<path class="st2" d="M112.3,79.7c-0.4,0-0.7-0.3-0.7-0.7c0-0.5,0-1.1-0.1-1.7c-0.1-1.7-0.1-3.9-0.4-5c-0.1-0.4,0.1-0.8,0.5-0.9
				s0.8,0.1,0.9,0.5c0.3,1.3,0.4,3.5,0.5,5.3c0,0.6,0,1.2,0.1,1.7C113,79.4,112.7,79.7,112.3,79.7L112.3,79.7z"/>
		</g>
		<g>
			<path class="st2" d="M75.5,79.7L75.5,79.7c-0.4,0-0.8-0.4-0.7-0.8c0-0.4,0-0.9,0.1-1.4c0.1-1.9,0.2-4.2,0.5-5.6
				c0.1-0.4,0.5-0.6,0.9-0.5s0.6,0.5,0.5,0.9c-0.3,1.3-0.4,3.5-0.5,5.3c0,0.5,0,1-0.1,1.4C76.3,79.4,75.9,79.7,75.5,79.7z"/>
		</g>
		<g>
			<g>
				<path class="st2" d="M128.8,139.2C128.8,139.2,128.7,139.2,128.8,139.2c-0.5-0.1-0.8-0.4-0.7-0.8c0,0,0.3-2.3,0.1-5.7l0,0l0,0
					c0-0.4,0.3-0.7,0.7-0.7s0.7,0.3,0.7,0.7l0,0c0.2,3.5-0.1,5.9-0.1,6C129.5,138.9,129.2,139.2,128.8,139.2z"/>
			</g>
			<g>
				<path class="st2" d="M59.1,139.2c-0.4,0-0.7-0.3-0.7-0.6c0-0.1-0.3-2.5-0.1-6l0,0c0-0.4,0.3-0.7,0.7-0.7s0.7,0.3,0.7,0.7l0,0
					l0,0c-0.2,3.4,0.1,5.7,0.1,5.7C59.9,138.8,59.6,139.2,59.1,139.2C59.2,139.2,59.1,139.2,59.1,139.2z"/>
			</g>
			<g>
				<path class="st2" d="M128.8,139.2L128.8,139.2c-0.4,0-0.7-0.4-0.7-0.8c0,0,0.1-2.5,0.1-5.9v-0.3c0-8.3,0-16.8-3.4-19
					c-0.8-0.5-2.1-1.3-4-2.3l0,0c-3.2-1.8-7.2-3.9-10.1-5.4c-3.5-1.8-6.2-3.3-6.2-3.3c-0.4-0.2-0.5-0.6-0.3-1s0.6-0.5,1-0.3
					c0,0,2.8,1.5,6.3,3.3c2.9,1.5,6.9,3.7,10.1,5.5l0,0c1.9,1.1,3.3,1.8,4,2.4c4.1,2.6,4.1,11.2,4,20.2v0.3c0,3.4-0.1,5.9-0.1,5.9
					C129.5,138.9,129.2,139.2,128.8,139.2z"/>
			</g>
			<g>
				<path class="st2" d="M59.1,139.2c-0.4,0-0.7-0.3-0.7-0.7c0,0-0.1-2.5-0.1-5.9v-0.3c0-9.1,0-17.6,4-20.2c0.8-0.5,2.1-1.3,4-2.4
					l0,0c3.2-1.8,7.3-4,10.1-5.5c3.5-1.8,6.2-3.3,6.3-3.3c0.4-0.2,0.8,0,1,0.3c0.2,0.4,0,0.8-0.3,1c0,0-2.8,1.5-6.2,3.3
					c-2.9,1.5-6.9,3.7-10.1,5.4l0,0c-1.9,1.1-3.2,1.8-4,2.3c-3.4,2.2-3.4,10.7-3.4,19v0.3c0,3.4,0.1,5.8,0.1,5.9
					C59.9,138.9,59.5,139.2,59.1,139.2L59.1,139.2z"/>
			</g>
			<g>
				<path class="st2" d="M109.3,139.2h-8.7c-0.2,0-0.4-0.1-0.5-0.2c-0.1-0.2-0.2-0.4-0.2-0.6l4.2-36.9c0-0.4,0.4-0.7,0.8-0.6
					c0.4,0,0.7,0.4,0.6,0.8l-4.1,36h7.5l6.4-8.8l-4.3-3.8c-0.2-0.1-0.2-0.3-0.2-0.5s0.1-0.4,0.2-0.5l4-4.1l-3.3-14.2
					c-0.1-0.4,0.2-0.8,0.5-0.9c0.4-0.1,0.8,0.2,0.9,0.5l3.4,14.6c0.1,0.2,0,0.5-0.2,0.7l-3.7,3.8l4.3,3.8c0.3,0.3,0.3,0.7,0.1,1
					l-7,9.7C109.7,139.1,109.5,139.2,109.3,139.2z"/>
			</g>
			<g>
				<path class="st2" d="M87.4,139.2h-8.7c-0.2,0-0.5-0.1-0.6-0.3l-7-9.7c-0.2-0.3-0.2-0.7,0.1-1l4.3-3.8l-3.7-3.8
					c-0.2-0.2-0.2-0.4-0.2-0.7l3.4-14.6c0.1-0.4,0.5-0.6,0.9-0.5s0.6,0.5,0.5,0.9l-3.3,14.2l4,4.1c0.1,0.1,0.2,0.3,0.2,0.5
					s-0.1,0.4-0.2,0.5l-4.3,3.8l6.4,8.8h7.5l-4.1-36c0-0.4,0.2-0.8,0.6-0.8c0.4,0,0.8,0.2,0.8,0.6l4.2,36.9c0,0.2,0,0.4-0.2,0.6
					C87.8,139.1,87.6,139.2,87.4,139.2z"/>
			</g>
			<g>
				<path class="st2" d="M121.1,116.8c-0.4,0-0.7-0.3-0.7-0.7v-5.7c0-0.4,0.3-0.7,0.7-0.7s0.7,0.3,0.7,0.7v5.7
					C121.9,116.5,121.5,116.8,121.1,116.8z"/>
			</g>
			<g>
				<path class="st2" d="M66.8,116.8c-0.4,0-0.7-0.3-0.7-0.7v-5.7c0-0.4,0.3-0.7,0.7-0.7s0.7,0.3,0.7,0.7v5.7
					C67.5,116.5,67.2,116.8,66.8,116.8z"/>
			</g>
			<g>
				<path class="st2" d="M93.9,127.2L93.9,127.2c-0.2,0-0.5-0.1-0.6-0.3l-9.6-14.4c-0.2-0.3-0.2-0.7,0.1-0.9c0.3-0.3,0.7-0.3,1,0
					l0,0l0.1,0.1l9,13.5l9-13.4c0.1-0.2,0.4-0.3,0.6-0.3c0.4,0,0.7,0.3,0.7,0.7c0,0.1,0,0.3-0.1,0.4L94.5,127
					C94.4,127.1,94.2,127.2,93.9,127.2z"/>
			</g>
		</g>
		<path class="st2" d="M111.4,70.4l1,8.1c0,0,3.3,3.2,3.2,4.4s-0.7,4-3.2,4.5c0,0-0.8-0.1-1.5,1.8c-0.6,1.9-6.9,16-16,15.5
			S81.2,99,78.8,95.1c-2.4-3.8-3.5-7.7-3.5-7.7s-3.3-2.8-3.1-4.5s3.1-3.7,3.1-3.7l1-7.8h8.6c0,0,4.1,5.4,8.8,5.3s7.4-2.9,8.3-5.3
			L111.4,70.4z"/>
		<path class="st2" d="M75.8,66.8c0,0,0.3-8,1.1-11.3s2.3-3.7,3.1-3.8s25.9-0.4,27.1-0.3c1.2,0.1,3.3,1.5,3.6,3.3s1.3,12,1.3,12
			h-8.9c0,0-2.2-7.7-9.2-7.7c-6.5,0-8.8,6.9-8.8,6.9L75.8,66.8z"/>
		<g>
			<path class="st0" d="M93.4,97L93.4,97C93.3,97,93.3,97,93.4,97c-2.3-0.1-4.4-1-5.9-2.6c-0.3-0.3-0.3-0.8,0-1c0.3-0.3,0.8-0.3,1,0
				c1.3,1.3,3,2,4.8,2.1l0,0h0.1h0.1h0.1h0.1c1.8-0.1,3.5-0.8,4.8-2.1c0.3-0.3,0.8-0.3,1,0c0.3,0.3,0.3,0.8,0,1
				c-1.6,1.6-3.6,2.5-5.8,2.6h-0.1C93.6,97,93.6,97,93.4,97L93.4,97C93.6,97,93.6,97,93.4,97C93.5,97,93.5,97,93.4,97z"/>
		</g>
		<g>
			<path class="st0" d="M108.2,86H96.5c-0.4,0-0.7-0.3-0.7-0.7v-6.8c0-0.4,0.3-0.7,0.7-0.7h11.7c0.4,0,0.7,0.3,0.7,0.7v6.8
				C108.9,85.7,108.6,86,108.2,86z"/>
		</g>
		<g>
			<path class="st2" d="M104.6,82.9c-0.2,0-0.4-0.1-0.5-0.2c-0.6-0.6-1.4-0.9-2.2-0.9l0,0c-0.8,0-1.6,0.3-2.2,0.9
				c-0.3,0.3-0.8,0.3-1,0c-0.3-0.3-0.3-0.8,0-1c0.8-0.8,2-1.3,3.2-1.3l0,0c1.2,0,2.4,0.5,3.2,1.4c0.3,0.3,0.3,0.8,0,1
				C105,82.8,104.8,82.9,104.6,82.9z"/>
		</g>
		<g>
			<path class="st0" d="M91.3,86H79.6c-0.4,0-0.7-0.3-0.7-0.7v-6.8c0-0.4,0.3-0.7,0.7-0.7h11.7c0.4,0,0.7,0.3,0.7,0.7v6.8
				C92,85.7,91.7,86,91.3,86z"/>
		</g>
		<g>
			<path class="st2" d="M82.9,82.9c-0.2,0-0.4-0.1-0.5-0.2c-0.3-0.3-0.3-0.8,0-1c0.9-0.9,2-1.4,3.2-1.4l0,0c1.2,0,2.4,0.5,3.2,1.3
				c0.3,0.3,0.3,0.8,0,1c-0.3,0.3-0.8,0.3-1,0c-0.6-0.6-1.3-0.9-2.2-0.9l0,0c-0.8,0-1.6,0.3-2.2,0.9C83.3,82.8,83.1,82.9,82.9,82.9z
				"/>
		</g>
		<polygon class="st2" points="82.4,101.7 87.3,138.2 78.5,138.6 71.8,128.9 76.4,124.6 72.1,119.9 75.3,105.6 		"/>
		<polygon class="st2" points="105,101.7 100.2,138.2 108.9,138.6 115.6,128.9 111.1,124.6 115.3,119.9 112.1,105.6 		"/>
		<path class="st2" d="M72.7,107.4c0,0-2.8,11.3-3,11.9c-0.2,0.7-0.2,1.5,0.7,2.3s2.8,2.8,2.8,2.8s-3.1,3-3.6,3.5
			c-0.4,0.4-0.9,1,0,2.2s6.8,9.3,6.8,9.3H58.3c0,0,0.1-10.5,0.3-13.5c0.2-2.9-0.6-11.1,4.3-13.6C67.8,109.9,72.7,107.4,72.7,107.4z"
			/>
		<path class="st2" d="M115.3,107.4c0,0,2.8,11.3,3,11.9c0.2,0.7,0.2,1.5-0.7,2.3c-0.8,0.8-2.8,2.8-2.8,2.8s3.1,3,3.6,3.5
			c0.4,0.4,0.9,1,0,2.2s-6.8,9.3-6.8,9.3h18.1c0,0-0.1-10.5-0.3-13.5c-0.2-2.9,0.6-11.1-4.3-13.6
			C120.2,109.9,115.3,107.4,115.3,107.4z"/>
	</g>
</g>
</svg>
