<svg id="Layer_1" data-name="Layer 1" xmlns="http://www.w3.org/2000/svg" viewBox="0 0 200.52 200.52"><defs><style>.cls-1{fill:#eb3c80;}.cls-2{fill:#fff;}</style></defs><title>FACEBOOK IC ON</title><path class="cls-1" d="M149.74,99.74V300.26H350.26V99.74Zm136.6,53.52H273.17c-10.33,0-12.32,4.92-12.32,12.12v15.89h24.62l-3.21,24.87H260.85V270H235.15V206.14H213.66V181.27h21.49V162.93c0-21.3,13-32.9,32-32.9a173.46,173.46,0,0,1,19.18,1Z" transform="translate(-149.74 -99.74)"/><path class="cls-2" d="M149.74,99.74V300.26H295.53a54.74,54.74,0,0,0,54.74-54.74V99.74Zm136.6,53.52H273.17c-10.33,0-12.32,4.92-12.32,12.12v15.89h24.62l-3.21,24.87H260.85V270H235.15V206.14H213.66V181.27h21.49V162.93c0-21.3,13-32.9,32-32.9a173.46,173.46,0,0,1,19.18,1Z" transform="translate(-149.74 -99.74)"/></svg>