<?xml version="1.0" encoding="utf-8"?>
<!-- Generator: Adobe Illustrator 21.1.0, SVG Export Plug-In . SVG Version: 6.00 Build 0)  -->
<svg version="1.1" id="Layer_2" xmlns="http://www.w3.org/2000/svg" xmlns:xlink="http://www.w3.org/1999/xlink" x="0px" y="0px"
	 viewBox="0 0 321.4 163.8" style="enable-background:new 0 0 321.4 163.8;" xml:space="preserve">
<style type="text/css">
	.st0{fill:#EB3C80;}
</style>
<title>lasik</title>
<path class="st0" d="M318.8,76.8c-47.5-51.5-107-78.7-167.5-76.8c-28.1,0.9-55.7,8.1-80.7,21C45,34.2,22.3,52.8,3.3,76.3L0,80.4
	l3.6,3.8C36.2,118.3,71,141.8,107,153.9c19,6.5,38.8,9.8,58.9,9.8c11.5,0,22.9-1.1,34.2-3.3c63.9-12.2,111.4-56.2,120-77.4l1.4-3.5
	L318.8,76.8z M161.1,151.5c-38.4,0-69.5-31.1-69.5-69.5s31.1-69.5,69.5-69.5s69.5,31.1,69.5,69.5l0,0
	C230.6,120.4,199.5,151.5,161.1,151.5z M16,79.8c28.6-33.6,64.9-55.6,104.8-64C84.3,38,72.7,85.6,94.8,122.2
	c5.1,8.3,11.7,15.7,19.4,21.5c-1.2-0.4-2.3-0.7-3.5-1.1C78,131.5,46.2,110.4,16,79.8z M201.8,147.9c36.4-22.4,47.7-70.1,25.2-106.5
	c-5.5-9-12.8-16.7-21.5-22.8c36.6,10.1,71.5,31.7,101.6,63.3C297.4,98.9,258.4,135.7,201.8,147.9L201.8,147.9z"/>
<path class="st0" d="M189.7,36.7c-1.1-0.7-2.5-0.8-3.7-0.1l-4.6,2.6c-1.7,1-2.2,3.1-1.2,4.8c0.3,0.5,0.7,0.9,1.2,1.2
	c19.8,11.7,26.3,37.2,14.6,56.9s-37.2,26.3-56.9,14.6s-26.3-37.2-14.6-56.9c3.7-6.2,8.9-11.4,15.2-15c1.7-1,2.3-3.1,1.3-4.8
	c-0.3-0.5-0.8-1-1.3-1.3l-4.7-2.6c-1.1-0.6-2.5-0.6-3.6,0.1c-24.7,15.9-31.8,48.9-15.9,73.6s48.9,31.8,73.6,15.9
	c24.7-15.9,31.8-48.9,15.9-73.6C201,46.1,195.8,40.8,189.7,36.7z"/>
</svg>
