<svg id="Layer_1" data-name="Layer 1" xmlns="http://www.w3.org/2000/svg" viewBox="0 0 200.52 200.52"><defs><style>.cls-1{fill:#eb3c80;}.cls-2{fill:#fff;}</style></defs><title>TWITTER ICON</title><path class="cls-1" d="M149.74,99.74V300.26H350.26V99.74Zm155.08,75.14a69.25,69.25,0,0,1-6.23,32.24c-.57,1.25-1.16,2.47-1.77,3.64-9.19,18-25.78,30.47-45,36.3-1.48.41-2.94.77-4.38,1.08-30.26,6.45-64.76-15-64.76-15,10,1.41,20.33,2,30.13,0,6.62-1.38,12.93-3.71,19.47-5.3-3.75.92-7.82-2.34-10.7-4.36a53,53,0,0,1-8.63-7.64,54.9,54.9,0,0,1-11.9-53.43c.52-1.66,1.62-5.2,2.41-7.38,23.1,26.21,51.39,25.77,51.39,25.77-1.93-7.26,1.48-25.48,17.77-29.33s25,7,25,7a40.14,40.14,0,0,0,15.85-6.07c-.74,6.22-10.07,13.77-10.07,13.77a53.35,53.35,0,0,0,13.77-3.85C314.3,168.21,304.82,174.88,304.82,174.88Z" transform="translate(-149.74 -99.74)"/><path class="cls-2" d="M149.74,99.74V300.26H295.53a54.74,54.74,0,0,0,54.74-54.74V99.74Zm155.08,75.14a69.25,69.25,0,0,1-6.23,32.24c-.57,1.25-1.16,2.47-1.77,3.64-9.19,18-25.78,30.47-45,36.3-1.48.41-2.94.77-4.38,1.08-30.26,6.45-64.76-15-64.76-15,10,1.41,20.33,2,30.13,0,6.62-1.38,12.93-3.71,19.47-5.3-3.75.92-7.82-2.34-10.7-4.36a53,53,0,0,1-8.63-7.64,54.9,54.9,0,0,1-11.9-53.43c.52-1.66,1.62-5.2,2.41-7.38,23.1,26.21,51.39,25.77,51.39,25.77-1.93-7.26,1.48-25.48,17.77-29.33s25,7,25,7a40.14,40.14,0,0,0,15.85-6.07c-.74,6.22-10.07,13.77-10.07,13.77a53.35,53.35,0,0,0,13.77-3.85C314.3,168.21,304.82,174.88,304.82,174.88Z" transform="translate(-149.74 -99.74)"/></svg>